<svg width="512pt" height="512pt" viewBox="0 0 512 512" version="1.1" xmlns="http://www.w3.org/2000/svg">
<path fill="#b2dfdb" opacity="1.00" d=" M 234.66 16.88 C 270.05 14.18 306.56 17.66 339.48 31.60 C 368.08 43.52 392.99 64.18 409.60 90.38 C 428.62 119.98 437.37 155.14 439.42 189.99 C 440.47 206.03 440.20 222.24 437.13 238.06 C 430.70 272.53 415.62 304.74 397.69 334.65 C 379.95 364.09 359.04 391.53 336.62 417.54 C 313.43 444.28 288.66 469.68 262.21 493.20 C 260.30 495.03 257.72 496.37 255.00 495.94 C 252.23 495.67 250.20 493.58 248.22 491.85 C 215.94 462.81 185.92 431.25 158.62 397.48 C 128.25 359.40 100.68 318.17 84.09 272.08 C 77.97 254.64 73.59 236.48 72.39 218.00 C 71.49 201.33 72.46 184.60 74.77 168.09 C 79.83 132.32 93.39 96.89 118.00 69.97 C 141.10 44.18 173.34 27.74 207.02 20.87 C 216.14 18.95 225.38 17.65 234.66 16.88 M 148.00 64.79 C 130.26 78.40 116.17 96.50 106.59 116.66 C 92.02 147.47 87.03 182.14 88.30 215.98 C 89.91 242.81 98.71 268.68 110.09 292.85 C 125.73 325.59 146.34 355.69 168.80 384.09 C 195.42 417.32 224.57 448.56 256.06 477.22 C 287.56 448.26 316.96 416.98 343.63 383.52 C 367.91 352.73 390.11 319.91 405.96 283.92 C 416.18 260.30 423.62 235.03 423.95 209.13 C 424.08 176.80 418.85 143.84 404.40 114.66 C 391.71 88.58 370.94 66.42 345.35 52.66 C 313.68 35.36 276.65 30.36 241.01 32.49 C 207.89 34.44 174.47 44.26 148.00 64.79 Z" />
<path fill="#b2dfdb" opacity="1.00" d=" M 241.53 56.77 C 267.87 53.96 295.02 58.97 318.51 71.27 C 344.30 84.61 365.59 106.43 378.27 132.56 C 391.29 159.06 395.18 189.88 389.31 218.80 C 383.85 246.30 369.50 271.92 349.04 291.07 C 326.87 312.01 297.47 325.16 267.04 327.52 C 242.17 329.58 216.75 324.63 194.52 313.26 C 165.47 298.57 142.05 273.11 129.91 242.91 C 119.52 217.40 117.26 188.68 123.40 161.84 C 129.70 133.75 145.34 107.92 167.14 89.15 C 187.86 71.10 214.20 59.65 241.53 56.77 M 252.97 72.05 C 227.52 72.62 202.35 81.62 182.34 97.36 C 159.74 114.90 143.68 140.71 138.26 168.83 C 132.93 195.79 137.16 224.56 150.30 248.71 C 163.74 273.81 186.38 293.83 212.98 303.99 C 239.31 314.20 269.29 314.64 295.88 305.13 C 324.30 295.21 348.54 274.08 362.40 247.37 C 374.97 223.49 378.98 195.30 373.72 168.84 C 367.99 139.05 350.30 111.84 325.57 94.32 C 304.65 79.25 278.74 71.33 252.97 72.05 Z" />
<path fill="#b2dfdb" opacity="1.00" d=" M 224.06 118.92 C 224.35 110.82 231.81 103.82 239.91 104.02 C 250.62 103.98 261.33 103.97 272.04 104.01 C 280.18 103.80 287.65 110.83 287.94 118.95 C 288.05 124.63 288.02 130.32 288.00 136.00 C 301.33 136.00 314.67 135.97 328.00 136.01 C 332.25 135.88 336.08 139.68 335.99 143.94 C 336.01 175.98 336.04 208.03 335.97 240.07 C 336.10 244.30 332.28 248.11 328.06 247.97 C 280.36 248.05 232.66 247.99 184.96 248.00 C 180.46 248.51 175.90 244.79 176.03 240.15 C 175.95 208.09 176.00 176.02 176.01 143.95 C 175.90 139.70 179.72 135.89 183.97 136.00 C 197.32 135.95 210.66 136.05 224.01 135.96 C 224.04 130.28 223.90 124.59 224.06 118.92 M 240.00 120.04 C 240.00 125.36 240.00 130.68 240.00 136.00 C 250.67 135.99 261.34 135.98 272.00 136.00 C 271.96 130.67 271.98 125.33 272.00 120.00 C 261.33 120.05 250.66 119.95 240.00 120.04 M 192.00 152.00 C 192.11 157.37 191.43 162.96 193.43 168.09 C 196.64 177.41 206.11 184.14 215.99 183.95 C 242.69 184.02 269.40 184.01 296.10 183.96 C 305.77 184.12 314.98 177.64 318.38 168.64 C 320.56 163.36 319.87 157.56 320.00 152.00 C 277.33 152.01 234.67 152.01 192.00 152.00 M 192.00 191.83 C 192.01 205.22 192.02 218.61 192.00 232.00 C 234.66 231.99 277.33 231.99 320.00 232.00 C 319.99 218.62 319.98 205.25 320.00 191.87 C 313.33 196.68 305.34 199.85 297.05 199.97 C 286.03 200.05 275.02 200.00 264.00 200.00 C 264.00 202.67 264.00 205.33 264.00 208.00 C 258.67 207.97 253.33 208.06 248.00 208.01 C 248.00 205.34 248.00 202.67 248.00 200.00 C 237.35 200.03 226.69 200.00 216.04 200.01 C 207.39 200.04 198.91 196.98 192.00 191.83 Z" />
<path fill="#b2dfdb" opacity="1.00" d=" M 215.96 263.96 C 221.31 264.02 226.66 264.00 232.01 264.00 C 232.06 269.33 231.97 274.67 232.00 280.00 C 226.67 279.97 221.33 280.06 216.00 280.01 C 215.99 274.66 216.02 269.31 215.96 263.96 Z" />
<path fill="#b2dfdb" opacity="1.00" d=" M 248.00 264.00 C 253.33 263.98 258.67 263.96 264.00 264.00 C 263.96 269.33 264.07 274.66 264.00 280.00 C 258.66 280.08 253.33 279.96 248.00 280.00 C 247.96 274.67 247.99 269.33 248.00 264.00 Z" />
<path fill="#b2dfdb" opacity="1.00" d=" M 280.00 264.00 C 285.34 263.99 290.69 264.03 296.04 263.96 C 295.97 269.31 296.01 274.65 296.00 280.00 C 290.65 280.01 285.31 279.97 279.96 280.03 C 280.03 274.69 279.99 269.34 280.00 264.00 Z" />
<path fill="#b2dfdb" opacity="1.00" d=" M 80.00 456.00 C 85.33 455.92 90.66 456.03 96.00 456.00 C 96.04 461.33 96.01 466.66 96.00 472.00 C 90.67 472.01 85.33 472.04 80.00 472.00 C 80.03 466.66 79.92 461.33 80.00 456.00 Z" />
<path fill="#b2dfdb" opacity="1.00" d=" M 112.00 456.00 C 117.33 456.03 122.67 455.94 128.00 455.99 C 128.00 461.34 127.97 466.69 128.04 472.04 C 122.69 471.98 117.34 472.00 111.99 472.00 C 111.94 466.66 112.03 461.33 112.00 456.00 Z" />
<path fill="#b2dfdb" opacity="1.00" d=" M 143.96 455.96 C 149.31 456.02 154.66 455.99 160.01 456.00 C 160.06 461.33 159.97 466.66 160.00 472.00 C 154.67 471.97 149.33 472.06 144.00 472.01 C 144.00 466.66 144.02 461.31 143.96 455.96 Z" />
<path fill="#b2dfdb" opacity="1.00" d=" M 352.00 456.00 C 357.33 456.03 362.66 455.94 368.00 455.99 C 368.00 461.34 367.97 466.69 368.04 472.04 C 362.69 471.97 357.34 472.00 351.99 472.00 C 351.94 466.66 352.03 461.33 352.00 456.00 Z" />
<path fill="#b2dfdb" opacity="1.00" d=" M 383.96 455.97 C 389.31 456.01 394.66 456.00 400.01 456.00 C 400.06 461.33 399.97 466.66 400.00 472.00 C 394.67 471.97 389.33 472.05 384.00 472.01 C 383.99 466.66 384.02 461.31 383.96 455.97 Z" />
<path fill="#b2dfdb" opacity="1.00" d=" M 416.00 456.00 C 421.33 455.99 426.67 455.96 432.00 456.01 C 431.96 461.33 432.07 466.66 432.00 472.00 C 426.66 472.07 421.33 471.96 416.00 472.00 C 415.96 466.67 415.98 461.33 416.00 456.00 Z" />
</svg>