<svg width="512pt" height="512pt" viewBox="0 0 512 512" version="1.1" xmlns="http://www.w3.org/2000/svg">
<path fill="#b2dfdb" opacity="1.00" d=" M 253.56 16.35 C 255.32 15.83 257.17 15.96 258.92 16.48 C 334.31 35.99 409.71 55.49 485.11 74.97 C 488.44 75.94 492.53 76.23 494.58 79.44 C 497.44 83.31 495.75 89.45 491.30 91.27 C 487.63 92.57 483.79 93.29 480.04 94.27 C 480.03 134.21 479.90 174.16 480.10 214.10 C 484.65 223.69 489.56 233.12 494.29 242.63 C 496.02 245.40 496.70 249.02 494.95 251.97 C 489.60 262.58 484.40 273.28 478.96 283.85 C 476.35 289.32 467.58 289.29 464.99 283.82 C 459.58 273.22 454.33 262.52 448.98 251.89 C 447.66 249.51 447.65 246.52 448.97 244.14 C 453.73 234.62 458.49 225.09 463.26 215.57 C 464.42 213.58 463.90 211.20 464.01 209.01 C 463.97 172.17 463.99 135.32 464.00 98.48 C 437.33 105.35 410.67 112.27 384.00 119.15 C 384.00 156.79 384.05 194.43 383.97 232.07 C 384.06 235.63 381.40 238.99 377.93 239.75 C 361.06 244.00 344.19 248.20 327.31 252.40 C 329.24 256.87 326.88 262.66 321.95 263.75 C 316.00 264.38 309.98 263.82 304.00 264.00 C 303.89 269.70 304.22 275.42 303.89 281.11 C 303.39 287.09 295.26 290.28 290.90 286.11 C 279.18 274.59 267.65 262.89 256.00 251.30 C 244.71 262.57 233.43 273.84 222.16 285.13 C 220.36 287.08 217.70 288.35 215.01 287.94 C 211.15 287.57 207.94 283.97 208.02 280.10 C 207.91 274.73 208.01 269.37 208.00 264.00 C 202.33 263.89 196.64 264.21 190.98 263.91 C 185.64 263.44 182.39 257.15 184.70 252.40 C 167.82 248.21 150.95 244.00 134.10 239.74 C 130.60 238.97 127.93 235.61 128.01 232.02 C 127.98 194.40 127.99 156.77 128.00 119.15 C 92.98 110.11 57.97 101.03 22.95 91.99 C 19.80 91.43 16.95 89.12 16.23 85.93 C 15.01 81.72 18.03 77.00 22.30 76.16 C 99.39 56.23 176.48 36.29 253.56 16.35 M 251.57 33.38 C 186.42 50.30 121.23 67.04 56.09 84.00 C 122.72 101.24 189.33 118.60 256.00 135.63 C 322.69 118.59 389.31 101.22 455.95 84.00 C 389.93 66.86 323.87 49.85 257.85 32.71 C 255.74 31.88 253.62 32.93 251.57 33.38 M 144.00 123.28 C 144.03 157.45 143.98 191.62 144.03 225.79 C 161.93 230.12 179.75 234.84 197.67 239.08 C 204.27 232.30 211.05 225.70 217.69 218.97 C 212.69 203.28 219.19 185.09 232.55 175.63 C 242.03 168.68 254.66 166.27 266.03 169.28 C 278.64 172.45 289.31 182.23 293.63 194.48 C 296.51 202.30 296.73 211.00 294.29 218.96 C 300.95 225.69 307.72 232.31 314.34 239.08 C 332.25 234.78 350.08 230.14 367.98 225.78 C 368.01 191.61 367.97 157.45 368.00 123.28 C 332.60 132.44 297.21 141.59 261.81 150.75 C 259.23 151.35 256.55 152.51 253.88 151.69 C 217.25 142.25 180.63 132.75 144.00 123.28 M 253.14 184.19 C 241.83 185.30 232.28 195.52 232.07 206.90 C 231.42 216.51 237.40 226.04 246.19 229.87 C 252.62 232.80 260.33 232.69 266.64 229.50 C 273.68 226.04 278.80 218.97 279.79 211.18 C 280.97 202.94 277.42 194.23 270.82 189.16 C 265.92 185.19 259.39 183.41 253.14 184.19 M 211.38 247.91 C 214.87 248.00 219.01 247.48 221.63 250.33 C 224.51 252.97 224.05 257.16 224.00 260.69 C 229.34 255.35 234.66 250.00 240.01 244.67 C 234.55 242.15 229.62 238.47 225.75 233.85 C 220.70 238.25 216.23 243.29 211.38 247.91 M 271.98 244.68 C 277.32 250.01 282.67 255.34 287.99 260.69 C 288.02 257.17 287.42 252.98 290.32 250.31 C 292.98 247.43 297.15 248.02 300.67 247.99 C 295.99 243.26 291.21 238.64 286.62 233.83 C 282.28 238.11 277.65 242.23 271.98 244.68 M 464.94 248.01 C 467.31 252.69 469.62 257.41 472.00 262.09 C 474.36 257.41 476.69 252.70 479.05 248.00 C 476.68 243.32 474.39 238.59 472.00 233.92 C 469.61 238.60 467.28 243.31 464.94 248.01 Z" />
<path fill="#b2dfdb" opacity="1.00" d=" M 64.00 288.00 C 69.33 287.99 74.67 287.96 80.00 288.00 C 79.96 293.33 80.08 298.66 80.00 304.00 C 74.67 304.08 69.34 303.96 64.00 304.00 C 63.96 298.67 63.99 293.33 64.00 288.00 Z" />
<path fill="#b2dfdb" opacity="1.00" d=" M 96.00 288.00 C 101.35 287.99 106.69 288.03 112.04 287.96 C 111.97 293.31 112.01 298.65 112.00 304.00 C 106.65 304.01 101.31 303.97 95.96 304.04 C 96.03 298.69 95.99 293.34 96.00 288.00 Z" />
<path fill="#b2dfdb" opacity="1.00" d=" M 128.00 288.00 C 133.33 287.92 138.66 288.03 144.00 288.00 C 144.04 293.33 144.01 298.66 144.00 304.00 C 138.66 304.01 133.33 304.04 128.00 304.00 C 128.04 298.66 127.92 293.33 128.00 288.00 Z" />
<path fill="#b2dfdb" opacity="1.00" d=" M 206.07 320.03 C 210.46 315.41 216.50 312.20 222.95 312.02 C 229.18 311.64 235.29 314.12 239.98 318.13 C 248.72 310.03 263.26 310.03 271.99 318.14 C 277.19 313.65 284.23 311.16 291.10 312.20 C 295.90 312.78 300.30 315.07 303.99 318.11 C 310.78 312.12 320.97 310.14 329.31 313.91 C 332.64 315.20 335.23 317.68 337.93 319.90 C 357.26 320.12 376.60 319.93 395.94 320.00 C 404.60 320.10 413.60 319.19 421.84 322.47 C 436.89 327.86 447.81 342.98 447.97 359.00 C 448.03 378.04 448.03 397.08 447.98 416.12 C 448.04 420.32 444.26 424.07 440.07 423.98 C 408.05 424.04 376.02 424.00 344.00 424.00 C 344.05 448.01 343.95 472.03 344.04 496.04 C 338.69 495.97 333.34 496.00 327.99 496.00 C 328.00 472.00 327.97 448.00 328.00 424.00 C 293.33 424.01 258.67 424.01 224.00 424.00 C 223.96 429.33 224.08 434.66 224.00 440.00 C 218.66 440.08 213.33 439.96 208.01 440.00 C 207.93 426.03 208.08 412.05 207.94 398.08 C 207.34 384.50 197.11 372.32 184.01 368.93 C 184.00 399.53 184.01 430.13 184.01 460.73 C 188.59 465.27 193.17 469.83 197.70 474.43 C 199.16 475.87 199.99 477.89 199.99 479.95 C 200.05 485.30 199.96 490.65 200.00 496.00 C 194.65 496.01 189.31 495.97 183.96 496.04 C 184.02 491.78 184.00 487.52 184.00 483.27 C 179.58 478.93 175.26 474.50 170.84 470.16 C 169.16 468.60 167.95 466.45 168.02 464.11 C 167.96 450.74 167.99 437.37 168.00 424.00 C 150.00 424.03 132.00 423.98 114.01 424.02 C 106.40 423.90 98.55 424.61 91.27 421.91 C 75.67 416.87 64.16 401.42 64.02 384.99 C 63.97 365.97 63.97 346.94 64.02 327.92 C 63.89 323.69 67.72 319.88 71.95 320.02 C 116.66 319.98 161.37 319.96 206.07 320.03 M 222.13 328.20 C 218.64 328.98 215.93 332.34 216.01 335.93 C 216.01 346.63 215.99 357.34 216.02 368.05 C 215.88 372.29 219.73 376.11 223.97 375.97 C 228.22 376.12 232.10 372.32 231.94 368.05 C 232.06 357.33 231.97 346.60 231.98 335.88 C 232.10 330.95 226.88 326.88 222.13 328.20 M 254.21 328.19 C 250.72 328.95 247.96 332.28 248.02 335.88 C 248.01 346.61 247.98 357.35 248.03 368.08 C 247.95 371.94 251.09 375.48 254.91 375.94 C 259.47 376.70 264.08 372.75 263.98 368.12 C 263.97 357.40 264.06 346.68 263.94 335.97 C 264.19 331.01 258.97 326.91 254.21 328.19 M 286.16 328.19 C 282.66 328.96 279.90 332.33 280.03 335.95 C 279.98 346.67 280.01 357.39 280.02 368.10 C 279.93 371.99 283.15 375.51 286.99 375.92 C 291.54 376.69 296.12 372.68 295.97 368.08 C 296.02 357.36 295.98 346.64 295.98 335.93 C 296.15 330.97 290.93 326.93 286.16 328.19 M 318.18 328.19 C 314.66 328.95 311.92 332.33 312.02 335.95 C 312.04 346.65 311.93 357.35 312.06 368.05 C 311.89 371.92 315.07 375.44 318.87 375.93 C 323.46 376.71 328.10 372.72 327.98 368.06 C 328.00 357.36 328.02 346.66 327.97 335.96 C 328.14 331.01 322.97 326.89 318.18 328.19 M 80.01 336.01 C 80.03 352.34 79.98 368.68 80.03 385.02 C 80.25 397.12 90.97 407.78 103.06 407.97 C 124.70 408.03 146.35 407.96 168.00 408.00 C 168.00 391.98 167.95 375.95 168.02 359.93 C 167.89 355.70 171.69 351.92 175.90 352.00 C 184.34 351.90 192.70 354.31 200.02 358.46 C 200.01 350.97 199.95 343.48 200.00 336.00 C 160.00 336.02 120.01 336.00 80.01 336.01 M 344.04 335.99 C 343.93 344.66 344.07 353.33 344.00 362.01 C 343.96 366.36 344.31 370.83 342.94 375.04 C 340.34 383.81 332.30 390.68 323.20 391.78 C 316.29 392.82 309.20 390.39 304.00 385.84 C 300.32 388.89 295.92 391.19 291.13 391.78 C 284.25 392.86 277.24 390.30 271.99 385.89 C 267.00 390.05 260.48 392.59 253.93 391.91 C 248.75 391.54 243.93 389.14 240.00 385.84 C 235.37 389.79 229.43 392.19 223.30 392.05 C 224.20 397.32 223.99 402.68 224.00 408.00 C 293.34 407.96 362.67 408.04 432.01 407.96 C 431.98 391.97 431.99 375.98 432.00 359.99 C 432.27 347.56 421.47 336.25 409.04 336.03 C 387.37 335.97 365.71 336.05 344.04 335.99 Z" />
</svg>