<svg width="512pt" height="512pt" viewBox="0 0 512 512" version="1.1" xmlns="http://www.w3.org/2000/svg">
<path fill="#b2dfdb" opacity="1.00" d=" M 186.49 85.50 C 209.68 61.08 232.82 36.62 256.00 12.19 C 279.17 36.62 302.33 61.06 325.50 85.50 C 316.23 85.52 306.96 85.49 297.69 85.51 C 297.68 115.17 297.71 144.84 297.68 174.50 C 292.12 174.47 286.56 174.55 281.00 174.49 C 280.99 139.26 280.98 104.03 281.00 68.80 C 282.85 68.80 284.70 68.80 286.56 68.80 C 276.42 58.00 266.17 47.28 256.00 36.50 C 245.79 47.26 235.58 58.03 225.39 68.80 C 227.27 68.80 229.16 68.78 231.05 68.77 C 230.98 103.98 230.97 139.18 231.06 174.39 C 225.48 174.68 219.89 174.41 214.31 174.50 C 214.28 144.84 214.30 115.18 214.30 85.52 C 205.03 85.46 195.76 85.53 186.49 85.50 Z" />
<path fill="#b2dfdb" opacity="1.00" d=" M 352.90 97.10 C 355.45 92.19 357.88 87.22 360.40 82.29 C 413.85 108.80 456.23 156.57 475.99 212.88 C 470.83 214.80 465.57 216.48 460.48 218.57 C 452.15 196.20 440.75 174.87 425.76 156.24 C 406.19 131.48 380.98 111.41 352.90 97.10 Z" />
<path fill="#b2dfdb" opacity="1.00" d=" M 36.00 212.88 C 55.73 156.59 98.06 108.71 151.61 82.41 C 154.05 87.42 156.74 92.31 159.01 97.40 C 109.34 121.83 69.99 166.24 51.70 218.48 C 46.45 216.66 41.23 214.77 36.00 212.88 Z" />
<path fill="#b2dfdb" opacity="1.00" d=" M 248.49 208.77 C 262.43 206.95 276.99 210.34 288.61 218.29 C 300.55 226.31 309.37 238.89 312.72 252.89 C 316.39 267.67 313.92 283.88 305.95 296.86 C 298.22 309.67 285.43 319.38 270.92 323.13 C 257.69 326.70 243.21 325.35 230.87 319.38 C 217.99 313.28 207.52 302.26 202.07 289.09 C 196.62 276.15 196.13 261.21 200.69 247.94 C 207.50 227.20 226.82 211.37 248.49 208.77 M 253.04 225.11 C 238.91 225.91 225.69 234.68 219.14 247.17 C 212.77 259.01 212.69 273.95 218.96 285.84 C 224.98 297.58 236.86 306.12 249.94 307.94 C 259.86 309.42 270.27 307.17 278.65 301.65 C 288.83 295.09 295.94 283.91 297.35 271.85 C 299.07 258.91 294.20 245.32 284.64 236.43 C 276.33 228.43 264.55 224.19 253.04 225.11 Z" />
<path fill="#b2dfdb" opacity="1.00" d=" M 2.01 282.89 C 26.40 259.77 50.76 236.62 75.18 213.53 C 75.22 222.74 75.17 231.96 75.18 241.17 C 104.88 241.20 134.58 241.18 164.28 241.18 C 164.29 246.75 164.31 252.32 164.32 257.89 C 129.05 257.91 93.78 257.88 58.52 257.90 C 58.50 256.03 58.50 254.17 58.50 252.31 C 47.72 262.48 36.96 272.69 26.19 282.89 C 36.96 293.10 47.67 303.37 58.49 313.52 C 58.50 311.65 58.50 309.77 58.50 307.90 C 93.76 307.88 129.03 307.88 164.29 307.90 C 164.34 313.46 164.29 319.02 164.30 324.58 C 134.60 324.63 104.91 324.57 75.21 324.61 C 75.12 333.85 75.27 343.09 75.16 352.33 C 50.74 329.22 26.38 306.04 2.01 282.89 Z" />
<path fill="#b2dfdb" opacity="1.00" d=" M 436.81 213.57 C 461.26 236.62 485.59 259.79 509.99 282.89 C 485.60 306.03 461.25 329.22 436.82 352.32 C 436.71 343.08 436.86 333.84 436.78 324.60 C 407.08 324.57 377.38 324.63 347.68 324.57 C 347.73 319.02 347.62 313.46 347.70 307.91 C 382.97 307.82 418.24 307.97 453.51 307.84 C 453.50 309.80 453.50 311.75 453.50 313.72 C 464.14 303.32 475.05 293.19 485.79 282.89 C 475.03 272.70 464.27 262.49 453.50 252.31 C 453.50 254.17 453.49 256.04 453.49 257.90 C 418.23 257.88 382.97 257.89 347.71 257.90 C 347.62 252.33 347.72 246.76 347.69 241.19 C 377.39 241.18 407.09 241.18 436.80 241.19 C 436.83 231.98 436.74 222.77 436.81 213.57 Z" />
<path fill="#b2dfdb" opacity="1.00" d=" M 289.38 332.49 C 304.25 332.86 319.12 337.06 331.42 345.54 C 352.78 359.73 365.62 385.34 364.51 410.93 C 364.48 437.75 364.55 464.58 364.47 491.40 C 358.90 491.38 353.33 491.38 347.76 491.41 C 347.83 463.26 347.78 435.11 347.78 406.96 C 347.67 392.85 342.16 378.89 332.64 368.50 C 323.54 358.36 310.78 351.58 297.27 349.80 C 283.53 368.16 269.73 386.48 256.00 404.84 C 242.27 386.46 228.43 368.17 214.70 349.79 C 193.51 352.45 174.63 367.80 167.60 387.95 C 165.43 394.04 164.25 400.49 164.19 406.96 C 164.18 435.10 164.21 463.24 164.17 491.38 C 158.61 491.40 153.05 491.37 147.49 491.42 C 147.50 463.94 147.50 436.47 147.49 409.00 C 146.89 385.02 158.78 361.29 178.17 347.23 C 190.88 337.72 206.66 332.84 222.46 332.49 C 233.68 347.29 244.81 362.16 256.00 376.99 C 267.13 362.16 278.27 347.34 289.38 332.49 Z" />
<path fill="#b2dfdb" opacity="1.00" d=" M 28.89 345.70 C 34.28 344.36 39.68 343.07 45.09 341.82 C 56.84 391.19 86.60 435.94 127.48 465.99 C 124.19 470.45 120.88 474.90 117.61 479.38 C 73.59 447.06 41.51 398.86 28.89 345.70 Z" />
<path fill="#b2dfdb" opacity="1.00" d=" M 466.89 341.70 C 472.28 342.95 477.65 344.30 483.03 345.56 C 470.57 398.77 438.38 446.95 394.37 479.28 C 391.10 474.80 387.77 470.37 384.51 465.89 C 425.45 435.89 455.16 391.08 466.89 341.70 Z" />
<path fill="#b2dfdb" opacity="1.00" d=" M 247.69 416.40 C 253.27 416.38 258.85 416.37 264.43 416.40 C 264.35 421.97 264.40 427.54 264.39 433.11 C 258.81 433.08 253.24 433.05 247.66 433.13 C 247.71 427.56 247.69 421.98 247.69 416.40 Z" />
<path fill="#b2dfdb" opacity="1.00" d=" M 247.67 449.67 C 253.24 449.66 258.80 449.71 264.37 449.68 C 264.44 455.25 264.38 460.82 264.38 466.39 C 258.82 466.36 253.25 466.44 247.69 466.38 C 247.70 460.81 247.67 455.24 247.67 449.67 Z" />
<path fill="#b2dfdb" opacity="1.00" d=" M 247.70 483.08 C 253.26 483.10 258.82 483.09 264.39 483.09 C 264.37 488.66 264.43 494.22 264.39 499.79 C 258.83 499.81 253.27 499.79 247.70 499.81 C 247.64 494.23 247.69 488.66 247.70 483.08 Z" />
</svg>