<svg width="512pt" height="512pt" viewBox="0 0 512 512" version="1.1" xmlns="http://www.w3.org/2000/svg">
<path fill="#b2dfdb" opacity="1.00" d=" M 247.80 2.00 C 253.26 2.00 258.72 2.00 264.18 2.00 C 264.24 12.94 264.12 23.87 264.23 34.80 C 258.74 34.80 253.25 34.80 247.77 34.80 C 247.84 23.87 247.75 12.94 247.80 2.00 Z" />
<path fill="#b2dfdb" opacity="1.00" d=" M 117.93 39.52 C 121.75 35.64 125.50 31.22 129.74 28.04 C 137.42 35.65 145.04 43.33 152.70 50.98 C 148.84 54.85 144.96 58.71 141.09 62.58 C 133.34 54.92 125.76 47.10 117.93 39.52 Z" />
<path fill="#b2dfdb" opacity="1.00" d=" M 359.27 50.97 C 367.01 43.24 374.71 35.48 382.48 27.79 C 386.34 31.64 390.18 35.51 394.05 39.36 C 386.34 47.11 378.59 54.83 370.85 62.56 C 366.99 58.69 363.11 54.85 359.27 50.97 Z" />
<path fill="#b2dfdb" opacity="1.00" d=" M 224.38 89.58 C 231.95 81.35 242.77 76.16 253.98 75.75 C 266.56 75.01 279.27 80.25 287.76 89.55 C 299.19 89.99 311.22 88.09 322.00 92.97 C 338.73 99.70 349.87 117.71 348.43 135.69 C 356.42 142.95 361.66 153.23 362.45 164.02 C 363.42 174.91 359.77 185.98 352.83 194.38 C 356.34 203.62 356.30 213.99 353.03 223.30 C 361.34 223.28 369.66 223.32 377.98 223.28 C 391.51 260.26 385.92 303.41 363.92 336.01 C 355.14 349.22 343.71 360.53 330.95 369.90 C 317.61 380.11 306.16 394.64 304.96 411.99 C 304.33 425.50 305.05 439.04 304.79 452.57 C 310.46 452.60 316.13 452.58 321.80 452.61 C 321.80 458.07 321.79 463.53 321.81 468.99 C 315.93 469.00 310.06 469.04 304.18 469.01 C 301.92 483.76 292.41 497.14 279.25 504.18 C 266.41 511.25 250.32 511.88 236.92 505.95 C 221.94 499.53 210.81 485.11 208.35 469.00 C 202.46 469.02 196.56 468.94 190.66 469.06 C 190.72 463.57 190.68 458.08 190.69 452.60 C 196.38 452.59 202.07 452.59 207.76 452.59 C 207.86 441.73 207.74 430.86 207.81 419.99 C 207.89 413.05 207.13 406.01 204.74 399.45 C 200.05 386.08 189.63 375.72 178.44 367.50 C 150.18 346.52 131.35 313.41 127.83 278.39 C 125.70 259.83 128.27 240.94 134.27 223.30 C 142.55 223.28 150.82 223.30 159.10 223.30 C 155.91 213.97 155.84 203.61 159.35 194.37 C 152.54 186.29 148.97 175.58 149.67 165.03 C 150.23 153.91 155.45 143.18 163.71 135.73 C 163.10 124.44 166.74 112.88 174.33 104.40 C 181.78 95.81 192.75 90.39 204.11 89.73 C 210.86 89.40 217.62 89.70 224.38 89.58 M 264.36 93.53 C 264.22 136.79 264.34 180.04 264.30 223.29 C 287.87 223.30 311.44 223.29 335.02 223.30 C 338.02 218.47 339.61 212.73 339.09 207.04 C 338.76 201.18 335.58 196.12 332.90 191.09 C 337.00 187.39 341.41 183.71 343.68 178.52 C 348.22 169.21 346.45 157.28 339.30 149.76 C 336.81 146.86 333.33 145.11 330.54 142.55 C 332.95 134.49 332.67 125.27 327.78 118.17 C 322.89 110.61 314.03 105.87 305.04 106.00 C 296.66 106.03 288.28 106.00 279.91 106.00 C 276.06 100.44 270.93 95.61 264.36 93.53 M 232.08 106.12 C 223.37 106.04 214.66 106.12 205.94 106.12 C 194.77 106.31 184.29 114.26 181.08 124.95 C 179.01 130.82 180.14 137.05 181.35 142.96 C 177.11 145.71 172.85 148.71 170.09 153.05 C 164.65 161.09 164.37 172.23 169.39 180.54 C 171.78 184.78 175.69 187.80 179.17 191.09 C 176.89 195.53 174.00 199.84 173.28 204.89 C 172.05 211.26 173.74 217.88 177.03 223.37 C 200.62 223.41 224.21 223.37 247.79 223.39 C 247.77 180.14 247.84 136.88 247.76 93.63 C 241.14 95.68 235.91 100.49 232.08 106.12 M 145.40 286.13 C 150.40 312.82 165.60 337.41 187.20 353.85 C 193.64 358.64 199.86 363.79 205.22 369.80 C 215.78 381.24 222.57 396.13 223.72 411.70 C 231.74 411.63 239.75 411.73 247.77 411.68 C 247.84 381.66 247.75 351.64 247.81 321.62 C 236.88 321.58 225.96 321.59 215.03 321.61 C 214.96 316.14 215.03 310.66 214.96 305.19 C 242.11 305.17 269.25 305.20 296.39 305.17 C 296.40 310.64 296.35 316.11 296.43 321.58 C 285.67 321.63 274.92 321.56 264.17 321.62 C 264.22 351.64 264.17 381.67 264.20 411.70 C 272.26 411.56 280.33 411.89 288.39 411.56 C 288.75 405.01 290.32 398.56 292.66 392.45 C 298.53 377.14 310.20 364.89 323.08 355.13 C 337.72 344.29 349.84 329.98 357.73 313.54 C 368.73 290.80 371.81 264.29 365.83 239.71 C 292.76 239.67 219.68 239.71 146.60 239.68 C 142.75 254.83 142.49 270.80 145.40 286.13 M 223.90 428.00 C 223.88 436.20 223.90 444.39 223.90 452.59 C 245.33 452.57 266.76 452.62 288.19 452.57 C 288.17 444.38 288.19 436.19 288.18 428.00 C 266.75 428.01 245.33 428.02 223.90 428.00 M 224.85 469.00 C 228.03 482.70 240.92 493.41 255.05 493.58 C 269.84 494.28 283.87 483.35 287.22 469.01 C 266.43 469.00 245.64 469.02 224.85 469.00 Z" />
<path fill="#b2dfdb" opacity="1.00" d=" M 216.62 117.70 C 219.31 117.41 222.29 116.90 224.76 118.36 C 227.81 119.98 229.64 123.63 228.96 127.05 C 228.35 130.75 224.93 133.75 221.15 133.76 C 216.17 133.67 211.28 136.60 209.19 141.16 C 207.28 144.73 208.93 149.60 205.44 152.43 C 201.08 156.83 192.79 154.08 191.71 148.04 C 190.37 133.44 202.20 119.51 216.62 117.70 Z" />
<path fill="#b2dfdb" opacity="1.00" d=" M 287.36 118.39 C 290.74 116.75 294.65 117.70 298.16 118.35 C 311.28 121.33 321.44 134.44 320.25 147.98 C 319.38 154.10 310.96 156.96 306.60 152.50 C 302.92 149.50 304.84 144.28 302.52 140.60 C 300.28 136.38 295.64 133.69 290.87 133.77 C 286.70 133.84 282.97 130.16 282.89 126.01 C 282.70 122.87 284.59 119.81 287.36 118.39 Z" />
<path fill="#b2dfdb" opacity="1.00" d=" M 67.42 173.97 C 67.60 168.54 67.43 163.11 67.53 157.68 C 78.46 157.69 89.40 157.69 100.33 157.68 C 100.29 163.15 100.29 168.62 100.29 174.08 C 89.33 174.04 78.37 174.25 67.42 173.97 Z" />
<path fill="#b2dfdb" opacity="1.00" d=" M 411.69 157.69 C 422.62 157.63 433.55 157.76 444.48 157.64 C 444.52 163.14 444.48 168.64 444.51 174.14 C 433.57 174.01 422.63 174.16 411.70 174.08 C 411.63 168.62 411.71 163.16 411.69 157.69 Z" />
<path fill="#b2dfdb" opacity="1.00" d=" M 203.47 180.70 C 206.93 179.05 211.36 180.36 213.50 183.49 C 215.61 186.08 214.52 189.66 215.78 192.57 C 217.59 197.58 222.76 200.96 228.05 200.92 C 232.33 200.86 236.15 204.70 236.09 208.99 C 236.27 213.71 231.76 217.82 227.07 217.28 C 212.78 217.19 199.78 205.20 198.73 190.91 C 197.92 186.93 199.52 182.32 203.47 180.70 Z" />
<path fill="#b2dfdb" opacity="1.00" d=" M 302.34 180.49 C 307.70 178.26 314.11 183.20 313.39 188.94 C 313.37 204.95 297.94 219.04 281.97 217.04 C 276.08 215.67 273.80 207.44 278.25 203.30 C 281.16 199.93 285.98 201.61 289.56 199.68 C 294.05 197.67 297.06 192.92 297.01 188.00 C 296.98 184.69 299.25 181.59 302.34 180.49 Z" />
</svg>