<svg width="512pt" height="512pt" viewBox="0 0 512 512" version="1.1" xmlns="http://www.w3.org/2000/svg">
<path fill="#b2dfdb" opacity="1.00" d=" M 413.50 55.68 C 424.76 53.85 436.73 57.03 445.56 64.26 C 453.98 70.97 459.56 81.12 460.65 91.84 C 461.96 103.44 457.94 115.47 449.98 123.99 C 441.24 133.55 427.78 138.58 414.92 136.87 C 401.29 135.34 388.85 126.35 382.97 113.99 C 377.70 103.27 377.56 90.23 382.49 79.37 C 388.01 66.95 400.04 57.69 413.50 55.68 M 412.49 72.71 C 401.51 75.99 393.87 87.66 395.46 99.05 C 396.61 111.13 407.85 121.16 420.01 120.77 C 431.75 121.02 442.63 111.59 444.20 99.98 C 445.77 90.67 441.36 80.77 433.45 75.65 C 427.37 71.60 419.45 70.51 412.49 72.71 Z" />
<path fill="#b2dfdb" opacity="1.00" d=" M 256.06 145.33 C 277.88 145.48 299.69 145.33 321.50 145.40 C 321.55 238.23 321.42 331.06 321.57 423.89 C 299.70 424.18 277.83 423.89 255.96 424.04 C 256.08 331.13 255.88 238.23 256.06 145.33 M 272.39 161.80 C 272.41 243.73 272.38 325.65 272.40 407.57 C 283.34 407.58 294.28 407.66 305.22 407.53 C 305.13 325.62 305.21 243.71 305.18 161.81 C 294.25 161.79 283.32 161.80 272.39 161.80 Z" />
<path fill="#b2dfdb" opacity="1.00" d=" M 350.18 157.27 C 357.71 149.74 368.28 145.33 378.94 145.39 C 385.31 145.36 391.68 145.42 398.06 145.36 C 399.23 145.52 400.85 144.97 401.67 146.14 C 407.76 152.74 413.81 159.38 419.88 166.00 C 426.16 159.15 432.48 152.35 438.69 145.44 C 446.77 145.37 454.86 145.32 462.95 145.46 C 478.29 146.06 492.64 156.23 498.52 170.37 C 500.76 175.59 501.86 181.27 501.80 186.94 C 501.80 227.72 501.79 268.50 501.81 309.28 C 490.86 309.36 479.92 309.24 468.99 309.33 C 469.03 347.55 469.01 385.78 469.00 424.00 C 436.27 424.01 403.54 424.02 370.81 423.99 C 370.76 385.77 370.83 347.54 370.77 309.32 C 359.84 309.24 348.91 309.37 337.98 309.26 C 338.02 268.18 337.96 227.09 338.01 186.00 C 338.03 175.31 342.55 164.75 350.18 157.27 M 370.93 163.11 C 361.32 166.24 354.27 175.85 354.33 185.98 C 354.26 221.62 354.32 257.26 354.30 292.91 C 365.16 292.83 376.02 292.95 386.88 292.86 C 386.86 331.06 386.98 369.27 386.82 407.47 C 395.04 407.72 403.27 407.55 411.50 407.57 C 411.51 380.27 411.47 352.96 411.52 325.66 C 416.98 325.68 422.44 325.69 427.90 325.70 C 428.01 353.03 427.64 380.37 428.08 407.69 C 436.21 407.43 444.36 407.70 452.49 407.57 C 452.45 369.40 452.60 331.23 452.42 293.06 C 463.37 292.66 474.33 293.00 485.29 292.89 C 485.29 257.26 485.31 221.63 485.28 186.00 C 485.27 176.71 479.42 167.83 470.96 164.03 C 463.11 160.37 454.24 162.27 445.89 161.80 C 437.24 171.27 428.52 180.67 419.94 190.21 C 410.98 180.98 402.48 171.29 393.76 161.83 C 386.17 162.18 378.29 160.75 370.93 163.11 Z" />
<path fill="#b2dfdb" opacity="1.00" d=" M 174.15 194.45 C 195.96 194.56 217.78 194.46 239.59 194.50 C 239.63 270.98 239.54 347.46 239.63 423.94 C 217.79 424.12 195.94 423.92 174.10 424.04 C 174.12 347.51 174.02 270.98 174.15 194.45 M 190.41 210.88 C 190.37 276.44 190.42 342.00 190.39 407.57 C 201.34 407.56 212.30 407.71 223.25 407.48 C 223.10 341.96 223.23 276.43 223.18 210.90 C 212.26 210.87 201.33 210.92 190.41 210.88 Z" />
<path fill="#b2dfdb" opacity="1.00" d=" M 411.70 202.70 C 417.17 202.66 422.64 202.65 428.11 202.73 C 428.08 208.18 428.15 213.63 428.08 219.08 C 422.63 219.15 417.18 219.07 411.74 219.11 C 411.65 213.64 411.66 208.17 411.70 202.70 Z" />
<path fill="#b2dfdb" opacity="1.00" d=" M 411.68 235.53 C 417.15 235.51 422.63 235.43 428.10 235.54 C 428.07 240.99 428.07 246.43 428.14 251.88 C 422.65 251.90 417.16 251.90 411.68 251.89 C 411.65 246.44 411.72 240.98 411.68 235.53 Z" />
<path fill="#b2dfdb" opacity="1.00" d=" M 92.09 243.70 C 113.92 243.63 135.74 243.76 157.57 243.64 C 157.67 303.74 157.51 363.85 157.65 423.96 C 135.79 424.08 113.94 423.97 92.09 424.01 C 92.10 363.90 92.08 303.80 92.09 243.70 M 108.51 260.09 C 108.50 309.26 108.51 358.42 108.50 407.59 C 119.43 407.60 130.36 407.58 141.29 407.59 C 141.30 358.44 141.29 309.29 141.30 260.14 C 130.37 260.03 119.44 260.15 108.51 260.09 Z" />
<path fill="#b2dfdb" opacity="1.00" d=" M 411.61 268.35 C 417.09 268.21 422.57 268.35 428.04 268.27 C 428.17 273.75 428.12 279.24 428.00 284.73 C 422.52 284.57 417.04 284.88 411.58 284.55 C 411.78 279.15 411.71 273.75 411.61 268.35 Z" />
<path fill="#b2dfdb" opacity="1.00" d=" M 10.18 292.91 C 32.03 292.93 53.88 292.76 75.73 292.99 C 75.66 336.65 75.67 380.31 75.73 423.97 C 53.88 424.03 32.02 424.02 10.17 423.98 C 10.19 380.29 10.18 336.60 10.18 292.91 M 26.54 309.37 C 26.67 342.11 26.56 374.85 26.60 407.60 C 37.53 407.58 48.46 407.58 59.39 407.60 C 59.43 374.86 59.29 342.13 59.46 309.39 C 48.49 309.23 37.52 309.27 26.54 309.37 Z" />
<path fill="#b2dfdb" opacity="1.00" d=" M 2.08 440.33 C 171.36 440.43 340.65 440.42 509.93 440.33 C 510.07 445.83 509.98 451.32 509.98 456.82 C 340.66 456.78 171.33 456.80 2.01 456.81 C 2.03 451.31 1.91 445.82 2.08 440.33 Z" />
</svg>