<svg width="512pt" height="512pt" viewBox="0 0 512 512" version="1.1" xmlns="http://www.w3.org/2000/svg">
<path fill="#b2dfdb" opacity="1.00" d=" M 223.38 12.24 C 237.00 2.66 254.93 -0.42 270.99 3.99 C 292.60 9.61 309.76 28.93 312.71 51.08 C 320.10 51.36 327.58 50.49 334.91 51.65 C 343.94 53.49 351.50 60.88 353.60 69.84 C 354.69 74.43 354.18 79.18 354.29 83.85 C 368.19 83.93 382.09 83.88 395.99 83.88 C 405.25 84.03 414.42 87.44 421.51 93.42 C 430.52 100.85 436.02 112.30 436.19 123.98 C 436.19 235.67 436.20 347.36 436.19 459.05 C 436.20 466.97 436.69 475.16 433.81 482.72 C 428.43 498.45 412.68 509.87 396.03 509.98 C 302.68 510.02 209.32 510.00 115.97 509.99 C 100.35 509.94 85.41 500.01 79.17 485.73 C 75.97 478.97 75.34 471.38 75.58 464.01 C 75.61 351.01 75.58 238.00 75.59 125.00 C 75.56 112.96 81.15 101.09 90.46 93.46 C 97.55 87.52 106.71 84.16 115.96 84.02 C 129.84 83.92 143.72 84.07 157.60 83.95 C 157.67 78.31 157.05 72.45 159.19 67.09 C 162.47 58.13 171.37 51.57 180.92 51.24 C 187.00 51.10 193.09 51.23 199.18 51.18 C 201.43 35.59 210.39 21.16 223.38 12.24 M 236.41 23.33 C 225.12 29.43 217.00 41.10 215.39 53.86 C 214.68 58.42 215.29 63.04 214.86 67.61 C 203.92 67.39 192.97 67.53 182.03 67.53 C 177.66 67.51 173.87 71.57 174.10 75.91 C 174.14 86.96 174.03 98.00 174.14 109.05 C 174.26 113.52 178.63 117.11 183.03 116.67 C 232.01 116.69 280.99 116.70 329.97 116.67 C 334.05 116.70 337.77 113.18 337.96 109.11 C 338.03 99.42 337.98 89.73 337.99 80.04 C 337.92 77.34 338.42 74.42 337.08 71.93 C 335.61 69.00 332.30 67.27 329.06 67.49 C 318.38 67.51 307.70 67.49 297.03 67.51 C 296.82 62.63 297.33 57.70 296.48 52.85 C 294.59 40.43 286.56 29.18 275.50 23.25 C 263.58 16.63 248.31 16.70 236.41 23.33 M 92.12 124.99 C 92.08 239.67 92.08 354.34 92.12 469.02 C 91.73 481.92 103.17 493.60 116.06 493.57 C 207.71 493.62 299.36 493.57 391.01 493.60 C 394.66 493.62 398.37 493.72 401.92 492.69 C 410.47 490.36 417.43 483.06 419.30 474.38 C 420.48 468.66 419.80 462.79 419.99 457.00 C 420.00 346.31 419.99 235.61 419.99 124.92 C 420.31 112.35 409.56 100.83 396.98 100.36 C 382.78 100.20 368.58 100.36 354.39 100.29 C 354.31 105.40 354.87 110.64 353.35 115.59 C 351.13 123.07 345.15 129.29 337.76 131.77 C 332.72 133.58 327.28 133.06 322.03 133.09 C 278.36 133.10 234.69 133.10 191.01 133.09 C 186.63 133.07 182.22 133.36 177.88 132.68 C 169.17 131.19 161.59 124.59 158.92 116.17 C 157.17 111.06 157.81 105.59 157.66 100.29 C 143.46 100.35 129.27 100.20 115.07 100.37 C 102.50 100.85 91.72 112.41 92.12 124.99 Z" />
<path fill="#b2dfdb" opacity="1.00" d=" M 214.96 83.85 C 220.40 83.88 225.85 83.95 231.31 83.86 C 231.53 89.33 231.33 94.82 231.38 100.30 C 225.92 100.26 220.46 100.36 215.00 100.29 C 215.00 94.81 215.01 89.33 214.96 83.85 Z" />
<path fill="#b2dfdb" opacity="1.00" d=" M 247.81 83.90 C 253.26 83.88 258.72 83.85 264.18 83.91 C 264.15 89.37 264.26 94.83 264.17 100.29 C 258.72 100.36 253.26 100.27 247.81 100.29 C 247.76 94.83 247.78 89.37 247.81 83.90 Z" />
<path fill="#b2dfdb" opacity="1.00" d=" M 280.60 83.90 C 286.06 83.88 291.52 83.92 296.98 83.85 C 297.02 89.33 296.99 94.81 297.01 100.29 C 291.53 100.31 286.05 100.26 280.57 100.32 C 280.61 94.85 280.59 89.38 280.60 83.90 Z" />
<path fill="#b2dfdb" opacity="1.00" d=" M 108.48 149.48 C 141.25 149.52 174.02 149.49 206.79 149.50 C 206.81 182.26 206.80 215.03 206.80 247.80 C 174.03 247.80 141.26 247.81 108.50 247.79 C 108.48 215.02 108.52 182.25 108.48 149.48 M 124.90 165.90 C 124.89 187.73 124.89 209.56 124.90 231.38 C 146.73 231.39 168.55 231.39 190.38 231.38 C 190.40 209.55 190.39 187.73 190.38 165.90 C 168.56 165.89 146.73 165.89 124.90 165.90 Z" />
<path fill="#b2dfdb" opacity="1.00" d=" M 305.78 220.01 C 316.46 202.14 327.18 184.28 337.88 166.42 C 348.79 184.67 359.96 202.79 370.63 221.18 C 370.78 281.94 370.64 342.72 370.70 403.50 C 376.19 403.47 381.68 403.51 387.18 403.49 C 387.19 384.39 387.18 365.29 387.19 346.19 C 392.65 346.19 398.12 346.17 403.59 346.19 C 403.61 370.75 403.58 395.31 403.61 419.87 C 392.67 419.93 381.74 419.86 370.81 419.90 C 370.69 424.94 371.18 430.07 370.04 435.03 C 368.11 444.21 361.98 452.37 353.75 456.84 C 344.81 461.83 333.53 462.20 324.26 457.88 C 312.83 452.72 304.97 440.57 305.19 428.00 C 305.17 360.33 305.21 292.66 305.17 224.99 C 305.28 223.33 304.79 221.48 305.78 220.01 M 327.78 215.00 C 334.52 215.02 341.25 214.99 347.98 214.97 C 344.62 209.35 341.27 203.72 337.88 198.12 C 334.52 203.74 331.19 209.39 327.78 215.00 M 321.50 231.39 C 321.51 288.76 321.51 346.13 321.50 403.49 C 332.43 403.50 343.36 403.50 354.29 403.50 C 354.30 346.13 354.30 288.76 354.29 231.39 C 343.36 231.40 332.43 231.40 321.50 231.39 M 321.52 419.88 C 321.47 426.24 320.66 433.47 325.31 438.57 C 331.38 446.40 344.46 446.37 350.50 438.53 C 355.13 433.44 354.30 426.23 354.29 419.90 C 343.36 419.87 332.44 419.91 321.52 419.88 Z" />
<path fill="#b2dfdb" opacity="1.00" d=" M 274.19 168.90 C 278.45 172.34 282.75 175.73 286.99 179.20 C 274.16 195.16 261.33 211.11 248.51 227.08 C 240.88 219.59 233.31 212.03 225.70 204.53 C 229.44 200.59 233.34 196.82 237.05 192.86 C 240.59 195.93 243.72 199.43 247.09 202.69 C 256.13 191.43 265.15 180.15 274.19 168.90 Z" />
<path fill="#b2dfdb" opacity="1.00" d=" M 108.50 264.19 C 141.27 264.18 174.03 264.18 206.80 264.19 C 206.80 296.96 206.81 329.73 206.79 362.50 C 174.03 362.50 141.27 362.52 108.50 362.49 C 108.49 329.73 108.50 296.96 108.50 264.19 M 124.90 280.60 C 124.89 302.43 124.89 324.25 124.90 346.08 C 146.73 346.10 168.56 346.09 190.39 346.09 C 190.39 324.26 190.39 302.43 190.39 280.60 C 168.56 280.59 146.73 280.60 124.90 280.60 Z" />
<path fill="#b2dfdb" opacity="1.00" d=" M 247.10 317.38 C 256.13 306.11 265.14 294.83 274.19 283.58 C 278.45 287.02 282.72 290.46 287.01 293.88 C 274.18 309.85 261.33 325.80 248.52 341.79 C 240.88 334.28 233.29 326.73 225.70 319.19 C 229.52 315.28 233.35 311.39 237.19 307.51 C 240.48 310.81 243.80 314.08 247.10 317.38 Z" />
<path fill="#b2dfdb" opacity="1.00" d=" M 108.45 379.02 C 141.22 378.72 174.02 378.95 206.80 378.91 C 206.84 411.64 206.73 444.38 206.86 477.11 C 174.09 477.30 141.31 477.14 108.53 477.19 C 108.41 444.47 108.59 411.74 108.45 379.02 M 124.88 395.33 C 124.92 417.15 124.87 438.98 124.90 460.80 C 146.73 460.79 168.56 460.78 190.38 460.80 C 190.39 438.97 190.38 417.13 190.39 395.29 C 168.55 395.33 146.72 395.25 124.88 395.33 Z" />
<path fill="#b2dfdb" opacity="1.00" d=" M 247.01 432.03 C 256.23 420.96 265.09 409.58 274.19 398.40 C 278.49 401.75 282.70 405.21 286.99 408.57 C 274.23 424.59 261.32 440.50 248.52 456.49 C 240.86 449.00 233.33 441.38 225.66 433.91 C 229.48 429.98 233.34 426.08 237.18 422.17 C 240.44 425.46 243.75 428.72 247.01 432.03 Z" />
</svg>