<svg width="512pt" height="512pt" viewBox="0 0 512 512" version="1.1" xmlns="http://www.w3.org/2000/svg">
<path fill="#b2dfdb" opacity="1.00" d=" M 252.65 32.01 C 258.15 31.96 263.64 32.03 269.14 32.28 C 268.86 37.61 268.64 42.94 268.37 48.26 C 263.19 48.02 258.01 47.98 252.84 47.98 C 252.82 42.66 252.71 37.33 252.65 32.01 Z" />
<path fill="#b2dfdb" opacity="1.00" d=" M 219.69 34.83 C 225.12 33.93 230.60 33.28 236.09 32.83 C 236.56 38.14 237.05 43.45 237.45 48.77 C 232.33 49.22 227.22 49.83 222.14 50.60 C 221.35 45.34 220.45 40.09 219.69 34.83 Z" />
<path fill="#b2dfdb" opacity="1.00" d=" M 285.59 33.58 C 291.11 34.29 296.61 35.11 302.06 36.21 C 300.99 41.44 299.97 46.68 298.90 51.90 C 293.90 50.86 288.83 50.20 283.78 49.49 C 284.36 44.18 285.02 38.89 285.59 33.58 Z" />
<path fill="#b2dfdb" opacity="1.00" d=" M 187.42 42.27 C 192.72 40.71 198.03 39.16 203.43 38.00 C 204.58 43.20 205.82 48.37 207.01 53.56 C 202.02 54.75 197.04 56.06 192.13 57.57 C 190.56 52.47 188.94 47.38 187.42 42.27 Z" />
<path fill="#b2dfdb" opacity="1.00" d=" M 318.24 40.16 C 323.60 41.72 328.86 43.56 334.07 45.55 C 332.14 50.52 330.18 55.48 328.23 60.44 C 323.47 58.60 318.62 57.03 313.77 55.45 C 315.34 50.38 316.75 45.26 318.24 40.16 Z" />
<path fill="#b2dfdb" opacity="1.00" d=" M 288.00 188.68 C 336.80 139.92 385.54 91.11 434.34 42.35 C 438.12 46.12 441.89 49.91 445.66 53.68 C 375.59 123.56 305.89 193.80 235.48 263.35 C 249.43 272.34 269.23 270.69 281.32 259.24 C 289.73 251.02 297.99 242.64 306.31 234.32 C 310.09 238.08 313.87 241.85 317.63 245.64 C 314.20 249.10 310.73 252.53 307.30 256.00 C 330.13 278.96 353.22 301.67 375.90 324.77 C 414.01 286.60 452.20 248.50 490.31 210.32 C 494.09 214.08 497.86 217.86 501.63 221.63 C 462.25 261.06 422.82 300.44 383.44 339.87 C 384.95 348.01 383.35 356.76 378.66 363.63 C 376.18 367.40 372.73 370.35 369.61 373.56 C 342.25 400.89 314.96 428.29 287.55 455.56 C 275.42 467.37 254.08 466.53 242.70 454.07 C 235.33 457.08 226.55 456.58 219.82 452.22 C 212.83 447.96 208.40 440.10 208.02 431.96 C 195.37 431.62 184.34 420.62 184.01 407.97 C 171.36 407.62 160.35 396.62 160.01 383.96 C 150.64 383.58 141.73 377.62 138.07 368.95 C 134.43 360.97 135.71 351.22 140.90 344.21 C 129.53 332.86 118.20 321.48 106.82 310.14 C 105.16 308.58 103.94 306.44 104.02 304.10 C 103.89 297.21 104.09 290.31 103.96 283.41 C 72.77 254.98 41.71 226.41 10.59 197.89 C 14.19 193.95 17.80 190.03 21.41 186.10 C 40.41 203.49 59.37 220.94 78.39 238.31 C 112.42 204.11 146.75 170.19 180.65 135.87 C 155.79 111.22 131.12 86.38 106.35 61.64 C 110.11 57.88 113.87 54.11 117.64 50.35 C 159.52 92.21 201.37 134.08 243.24 175.94 C 252.83 176.10 262.42 175.90 272.01 176.01 C 274.13 175.95 276.19 176.88 277.67 178.38 C 281.15 181.78 284.52 185.28 288.00 188.68 M 90.18 249.14 C 97.37 255.74 104.54 262.35 111.77 268.90 C 145.39 235.25 179.03 201.63 212.67 168.00 C 205.79 161.09 198.90 154.19 192.00 147.32 C 158.06 181.26 124.13 215.21 90.18 249.14 M 120.00 283.29 C 120.01 289.11 119.96 294.93 120.06 300.75 C 130.71 311.39 141.35 322.04 152.00 332.68 C 161.97 322.74 171.89 312.75 181.88 302.82 C 189.18 295.67 201.08 293.91 210.15 298.63 C 218.19 302.57 223.59 311.09 223.96 320.01 C 236.62 320.35 247.62 331.36 247.97 344.01 C 260.62 344.34 271.62 355.37 271.96 368.02 C 282.43 368.39 292.17 375.86 295.01 385.98 C 297.49 394.29 295.23 403.83 289.20 410.08 C 277.99 421.46 266.53 432.60 255.41 444.05 C 261.57 449.17 271.50 449.11 277.19 443.31 C 305.39 415.16 333.54 386.95 361.74 358.79 C 366.26 354.95 369.02 348.85 367.71 342.90 C 366.97 337.97 363.26 334.42 359.84 331.15 C 338.55 309.87 317.29 288.58 296.00 267.31 C 288.26 275.59 278.14 281.73 266.96 283.95 C 249.67 287.76 230.69 282.35 218.10 269.90 C 214.84 267.09 214.57 261.63 217.63 258.59 C 237.26 239.00 257.00 219.53 276.65 199.97 C 274.02 197.32 271.38 194.68 268.74 192.05 C 259.14 191.90 249.54 192.11 239.94 191.98 C 237.88 192.01 235.87 191.14 234.42 189.70 C 230.90 186.28 227.50 182.74 224.00 179.30 C 189.32 213.95 154.67 248.63 120.00 283.29 M 197.15 312.17 C 195.43 312.52 193.86 313.43 192.63 314.67 C 180.45 326.82 168.31 339.02 156.12 351.15 C 154.17 352.96 152.28 355.14 152.04 357.91 C 151.25 363.09 155.83 368.20 161.05 368.01 C 164.21 368.08 166.85 366.08 168.85 363.84 C 181.00 351.63 193.21 339.50 205.36 327.29 C 207.65 325.06 208.59 321.57 207.66 318.50 C 206.47 314.09 201.61 311.12 197.15 312.17 M 221.11 336.20 C 219.15 336.54 217.48 337.74 216.13 339.15 C 203.66 351.66 191.16 364.12 178.68 376.62 C 175.12 379.89 175.16 386.07 178.64 389.39 C 181.94 392.86 188.00 392.83 191.29 389.35 C 203.98 376.68 216.67 364.00 229.33 351.30 C 231.77 348.93 232.69 345.10 231.46 341.91 C 230.07 337.75 225.37 335.24 221.11 336.20 M 243.49 360.70 C 242.19 361.21 241.14 362.15 240.16 363.12 C 227.67 375.65 215.14 388.13 202.65 400.65 C 199.31 403.77 199.11 409.45 202.13 412.85 C 205.33 416.77 211.86 417.08 215.32 413.34 C 228.01 400.68 240.68 388.00 253.34 375.31 C 255.91 372.84 256.75 368.78 255.30 365.51 C 253.55 361.02 247.88 358.68 243.49 360.70 M 269.11 384.18 C 267.15 384.56 265.47 385.73 264.12 387.15 C 251.65 399.67 239.13 412.14 226.65 424.65 C 223.30 427.76 223.13 433.40 226.11 436.81 C 229.27 440.81 235.87 441.06 239.33 437.33 C 252.01 424.68 264.67 412.01 277.32 399.34 C 280.01 396.77 280.80 392.46 279.13 389.13 C 277.46 385.43 273.06 383.27 269.11 384.18 Z" />
<path fill="#b2dfdb" opacity="1.00" d=" M 156.57 54.29 C 161.56 51.92 166.65 49.76 171.77 47.71 C 173.69 52.69 175.59 57.68 177.61 62.62 C 172.83 64.56 168.07 66.53 163.43 68.77 C 161.13 63.95 158.81 59.14 156.57 54.29 Z" />
<path fill="#b2dfdb" opacity="1.00" d=" M 342.27 66.62 C 344.63 61.84 346.97 57.05 349.31 52.26 C 354.25 54.73 359.14 57.32 363.90 60.13 C 361.21 64.72 358.54 69.33 355.84 73.93 C 351.39 71.36 346.86 68.93 342.27 66.62 Z" />
<path fill="#b2dfdb" opacity="1.00" d=" M 66.44 152.62 C 78.02 149.63 90.94 156.76 94.66 168.09 C 97.36 175.67 95.90 184.57 90.85 190.84 C 85.76 197.41 77.11 200.96 68.87 199.79 C 60.52 198.78 52.98 192.96 49.83 185.18 C 47.29 179.12 47.37 171.99 50.16 166.04 C 53.16 159.39 59.35 154.31 66.44 152.62 M 70.13 168.23 C 63.89 169.34 61.86 178.36 66.87 182.14 C 71.06 185.97 78.53 183.49 79.74 177.99 C 81.48 172.43 75.70 166.62 70.13 168.23 Z" />
<path fill="#b2dfdb" opacity="1.00" d=" M 24.57 247.48 C 29.89 247.81 35.20 248.22 40.51 248.59 C 40.13 253.72 40.07 258.86 39.99 263.99 C 34.65 264.09 29.32 263.96 23.99 264.00 C 24.00 258.49 24.18 252.98 24.57 247.48 Z" />
<path fill="#b2dfdb" opacity="1.00" d=" M 472.02 264.01 C 477.34 263.92 482.68 264.04 488.01 264.00 C 487.97 269.51 487.80 275.02 487.41 280.52 C 482.09 280.18 476.78 279.78 471.46 279.40 C 471.84 274.27 471.90 269.14 472.02 264.01 Z" />
<path fill="#b2dfdb" opacity="1.00" d=" M 24.58 280.59 C 29.89 280.16 35.22 279.85 40.53 279.41 C 40.87 284.56 41.46 289.68 42.15 294.79 C 36.87 295.52 31.60 296.30 26.32 297.04 C 25.50 291.58 24.98 286.08 24.58 280.59 Z" />
<path fill="#b2dfdb" opacity="1.00" d=" M 467.10 309.96 C 468.16 304.92 469.07 299.85 469.84 294.76 C 475.12 295.61 480.48 296.05 485.72 297.13 C 484.76 302.52 483.90 307.93 482.75 313.28 C 477.52 312.21 472.33 311.00 467.10 309.96 Z" />
<path fill="#b2dfdb" opacity="1.00" d=" M 29.24 313.35 C 34.45 312.20 39.66 311.08 44.87 309.94 C 46.03 314.93 47.19 319.93 48.71 324.83 C 43.62 326.45 38.46 327.84 33.36 329.39 C 31.75 324.11 30.45 318.74 29.24 313.35 Z" />
<path fill="#b2dfdb" opacity="1.00" d=" M 463.29 324.87 C 468.42 326.39 473.59 327.77 478.68 329.44 C 477.05 334.67 475.33 339.86 473.51 345.02 C 468.43 343.32 463.46 341.31 458.43 339.48 C 460.22 334.67 461.84 329.80 463.29 324.87 Z" />
<path fill="#b2dfdb" opacity="1.00" d=" M 38.54 345.19 C 43.49 343.17 48.55 341.43 53.54 339.52 C 55.40 344.31 57.31 349.07 59.44 353.75 C 54.59 355.96 49.76 358.18 44.90 360.38 C 42.55 355.41 40.58 350.29 38.54 345.19 Z" />
<path fill="#b2dfdb" opacity="1.00" d=" M 452.43 353.87 C 457.43 355.75 462.18 358.25 467.07 360.40 C 464.78 365.42 462.27 370.34 459.65 375.20 C 454.96 372.66 450.28 370.12 445.61 367.54 C 448.00 363.04 450.37 358.53 452.43 353.87 Z" />
<path fill="#b2dfdb" opacity="1.00" d=" M 52.33 375.19 C 57.00 372.63 61.68 370.06 66.36 367.52 C 68.87 372.00 71.46 376.44 74.23 380.76 C 69.76 383.66 65.28 386.54 60.79 389.40 C 57.79 384.78 54.97 380.03 52.33 375.19 Z" />
<path fill="#b2dfdb" opacity="1.00" d=" M 437.47 380.98 C 442.32 383.28 446.55 386.75 451.20 389.46 C 448.18 394.10 445.01 398.64 441.70 403.07 C 437.41 399.90 433.19 396.65 428.91 393.47 C 431.84 389.37 434.91 385.34 437.47 380.98 Z" />
<path fill="#b2dfdb" opacity="1.00" d=" M 70.24 403.02 C 74.50 399.81 78.75 396.60 83.03 393.42 C 86.15 397.50 89.35 401.53 92.72 405.42 C 88.70 408.93 84.65 412.40 80.61 415.89 C 77.03 411.70 73.53 407.44 70.24 403.02 Z" />
<path fill="#b2dfdb" opacity="1.00" d=" M 408.72 416.72 C 412.35 413.10 415.82 409.33 419.21 405.48 C 423.23 408.98 427.29 412.43 431.28 415.96 C 427.67 420.13 423.90 424.16 420.00 428.07 C 416.22 424.30 412.44 420.54 408.72 416.72 Z" />
<path fill="#b2dfdb" opacity="1.00" d=" M 91.89 428.02 C 95.65 424.23 99.47 420.49 103.21 416.67 C 106.86 420.31 110.60 423.86 114.53 427.20 C 111.04 431.23 107.53 435.26 104.02 439.28 C 99.83 435.70 95.83 431.89 91.89 428.02 Z" />
<path fill="#b2dfdb" opacity="1.00" d=" M 397.41 427.27 C 400.88 431.32 404.42 435.31 407.86 439.39 C 403.68 442.96 399.40 446.44 395.00 449.76 C 391.77 445.50 388.60 441.20 385.38 436.94 C 389.51 433.86 393.50 430.61 397.41 427.27 Z" />
<path fill="#b2dfdb" opacity="1.00" d=" M 126.49 436.93 C 130.64 439.97 134.89 442.88 139.17 445.75 C 136.29 450.21 133.41 454.68 130.55 459.16 C 125.87 456.22 121.36 453.02 116.93 449.72 C 120.10 445.45 123.34 441.22 126.49 436.93 Z" />
<path fill="#b2dfdb" opacity="1.00" d=" M 359.51 453.63 C 364.00 451.12 368.45 448.52 372.77 445.73 C 375.62 450.24 378.50 454.73 381.44 459.19 C 376.79 462.19 372.03 464.99 367.19 467.66 C 364.61 463.00 362.04 458.33 359.51 453.63 Z" />
<path fill="#b2dfdb" opacity="1.00" d=" M 144.80 467.65 C 147.33 462.96 149.90 458.28 152.48 453.62 C 156.98 456.08 161.59 458.34 166.24 460.53 C 164.07 465.39 161.80 470.21 159.61 475.07 C 154.58 472.78 149.63 470.31 144.80 467.65 Z" />
<path fill="#b2dfdb" opacity="1.00" d=" M 331.46 466.46 C 336.25 464.57 341.04 462.67 345.73 460.54 C 347.93 465.39 350.19 470.21 352.35 475.07 C 347.38 477.39 342.28 479.40 337.20 481.46 C 335.13 476.52 333.46 471.43 331.46 466.46 Z" />
<path fill="#b2dfdb" opacity="1.00" d=" M 174.95 481.48 C 176.69 476.43 178.66 471.46 180.52 466.45 C 185.33 468.23 190.21 469.83 195.12 471.30 C 193.65 476.42 192.13 481.53 190.64 486.65 C 185.35 485.11 180.13 483.34 174.95 481.48 Z" />
<path fill="#b2dfdb" opacity="1.00" d=" M 301.94 475.12 C 306.93 473.95 311.92 472.78 316.83 471.29 C 318.44 476.34 319.76 481.48 321.42 486.51 C 316.15 488.27 310.74 489.54 305.33 490.73 C 304.21 485.52 303.01 480.33 301.94 475.12 Z" />
<path fill="#b2dfdb" opacity="1.00" d=" M 210.08 475.12 C 215.10 476.18 220.15 477.10 225.23 477.81 C 224.48 483.10 223.80 488.41 222.94 493.68 C 217.51 492.83 212.08 491.94 206.70 490.75 C 207.82 485.54 208.95 480.33 210.08 475.12 Z" />
<path fill="#b2dfdb" opacity="1.00" d=" M 271.43 479.46 C 276.56 479.08 281.67 478.49 286.77 477.83 C 287.50 483.11 288.30 488.38 289.02 493.66 C 283.56 494.47 278.07 495.00 272.57 495.40 C 272.17 490.08 271.79 484.77 271.43 479.46 Z" />
<path fill="#b2dfdb" opacity="1.00" d=" M 240.57 479.44 C 245.71 479.81 250.86 480.00 256.01 480.01 C 256.06 485.34 255.96 490.67 256.00 496.01 C 250.48 495.98 244.97 495.80 239.47 495.42 C 239.84 490.09 240.22 484.77 240.57 479.44 Z" />
</svg>